<?xml version="1.0" encoding="UTF-8"?>
<svg id="_图层_1" data-name="图层_1" xmlns="http://www.w3.org/2000/svg" xmlns:xlink="http://www.w3.org/1999/xlink" version="1.1" viewBox="0 0 1000 1000">
  <!-- Generator: Adobe Illustrator 29.1.0, SVG Export Plug-In . SVG Version: 2.1.0 Build 142)  -->
  <defs>
    <style>
      .st0 {
        fill: #fffac3;
        filter: url(#drop-shadow-1);
      }
    </style>
    <filter id="drop-shadow-1" x="0" y="0" width="1000" height="1000" filterUnits="userSpaceOnUse">
      <feOffset dx="12.97" dy="12.97"/>
      <feGaussianBlur result="blur" stdDeviation="25.94"/>
      <feFlood flood-color="#000" flood-opacity=".14"/>
      <feComposite in2="blur" operator="in"/>
      <feComposite in="SourceGraphic"/>
    </filter>
  </defs>
  <rect class="st0" width="1000" height="1000"/>
  <g>
    <path d="M422.22,242.2l.59.33h.21s1.88.04,1.88.04c.08,0,.15,0,.22,0,14.87,0,22.57-5.67,22.88-16.85l.16-5.75-.45-.71c-7.67-12.06-14.69-18.01-21.47-18.19h-.53c-9.79-.03-16.23,5.99-19.02,18.06l-.13,2.18c-.21,7.89,5.05,14.92,15.65,20.89Z"/>
    <path d="M429.77,287.88l-.6.29c-9.41,4.54-10.23,15.15-9.89,21.06.5,8.48,3.74,15.47,5.66,16.37l.24.11,1.07-.19.18.94c1.19,6.12,1.33,18.88,1.08,27.99,0,.27.41,27.11,2.87,46.52.48,3.77,1.12,8.02,1.87,12.94l.05.32c.52,3.41,1.09,7.12,1.68,11.22,1.83,29.31,8.23,43.71,19.57,44.02l6.08.17.12-.03c1.33-.36,8.15-2.35,11.8-6.37,2.92-3.21,4.91-8.05,5.45-9.46l.08-.2-.03-.21c-.42-3.09-1.19-7.7-1.87-10.53l-.06-.25-.19-.17c-.61-.56-2.19-1.63-3.9-2.77-3.84-2.56-4.82-3.32-4.96-4.16-4.19-26.04-7.36-61.69-7.13-70.29l.04-1.64c.08-2.83-.53-20.02-1.84-52.5l.13-4.91c.27-9.97-5.28-16-16.63-17.92l-10.88-.33Z"/>
    <path d="M188.22,326.27s9.14.01,11.46.02c5.15.02,12.36.07,22.38.32l15.02.14,5.03,27.98c.17,1.95.48,3.89.93,5.78l9.62,40.89c.79,2.53,1.29,5.73,1.76,8.83.56,3.62,1.14,7.36,2.2,10.07,12.8,32.56,31.61,49.12,55.89,49.21h.17c2.3,0,3.44-.19,5.67-.56l4.18-.43c4.86-.8,10.87-2.51,18-5.15,20.44-11.8,29.15-20.73,34.54-35.39,3.32-9.05,1.54-15.2-5.29-18.28-.16-.09-.54-.37-.95-.68-1.2-.9-1.63-1.19-1.98-1.28-5.57-1.33-11.49.44-15.45,4.61-14.06,14.82-18.63,17.76-26.95,20.16l-4.03.66c-1.28.21-2.54.33-3.86.31-13.1-.05-29.38-13-35.16-37.66-.58-2.46-1.51-4.94-2.41-7.34-.95-2.52-1.93-5.13-2.46-7.64-2.5-11.93-3.82-23.53-4.99-33.77-.49-4.28-.95-8.32-1.46-12.06-.64-4.72-1.15-8.98-1.51-12.68l-.08-.78,43.99-6.54c17-5.49,21.43-10.49,19.76-22.31-1.21-8.56-6.46-13.35-16.04-14.65l-.13-.02-.13.02c-1.81.32-5.44,1.1-10.03,2.09-6.43,1.38-14.43,3.1-20.56,4.22-4.77.87-18.04,3.26-21.73,3.92l-1.79-60.54-.29-29.22c-2.22-15.41-10.99-16.99-18.04-18.26l-.9-.16-3.87.64c-2.35.39-7.72,5.91-6.95,48.65.25,13.62,1.38,47.74,2.49,62.62l.08,1.02-1.02.03c-.13,0-13.57.36-27.91.3-12.19-.05-21.4-.36-27.37-.94l-3-.29c-17.31-1.68-28.75-2.79-36.75-2.82-9.35-.03-14.24,1.36-19.19,5.55-4.53,3.82-4.28,12.6-4.18,14.33l.04.21c2.69,8.41,11.99,13.24,27.62,14.36l26.95,1.92c6.79.48,12,.59,18.71.62Z"/>
    <path d="M674.92,657.04c-11.84-25.1-31.47-36.25-65.56-39.5h-.48c-24.44,1.28-48.78,5.54-55.56,10.93-8.02,4.85-9.38,8.36-9.47,12.23-.1,4.31-.12,10.1,2.17,12.86,3.49,4.19,12.73,1.85,15.72,2.41,1.13,4.75,1.66,13.43,3.62,20.54.43,12.19,1.51,25.07,3.07,38.11,5.41,44.97,16.67,91.75,27.39,118.17,6.86,30.62,8.6,36.27,20.6,37.42.03,0,.06,0,.09,0,12.54-.37,15.09-7.57,15.49-11.83l.07-.7-3.03-8.76c-16.73-48.38-26.26-94.79-25.77-102.74,49.02-13.66,71.6-32.96,74.33-61.69.08-.87.28-8.3-2.39-26.54l-.28-.91ZM648.31,681.71l-.14,1.43c-1.26,13.22-15.22,23.29-48.74,34.26-2.65-28.53-5.86-51.81-9.57-69.26,1.19-.53,4.61-1.49,13.86-1.58,34.28,3.26,46.4,16.23,44.59,35.15Z"/>
    <path d="M381.72,709.64l-.32-.11-2.61.35c-.46.06-.92.15-1.39.25-5.28,1.2-9.83,5.17-12.16,10.64-7.96,18.64-16.6,22.22-24.75,23.32l-3.64.49c-16.46,2.22-27.07-12.46-34.36-47.52-1.12-8.31-2.03-12.88-2.9-17.3-1.67-8.41-3.24-16.36-5.98-49.67l24.8-4.02c14.84-2,21.56-9.01,19.97-20.84-.79-5.83-4.31-12.81-16.64-12.93h-.2s-.19.05-.19.05c-5.58,1.48-10.87,2.77-31.83,6.75l.3-47.7v-.1c-1.99-14.63-11.18-16.33-17.89-17.58l-1.18-.22-3.87.52c-3.89.52-9.05,5.53-8.95,42.79.02,6.97.48,11.8,1.02,17.38.3,3.09.63,6.55.92,10.75l-.49.07c-18.78,2.53-35.72,2.15-50.12,1.59-7.07-.27-13.1-.57-18.27-.83-22.63-1.12-29.46-1.45-36.11,4.77-5.01,4.69-3.34,14.05-3.27,14.44l.1.31c3.42,7.85,12.91,11.68,28.17,11.43l24.34-.41c3.14-.05,6.63-.08,10.41-.11,13.29-.1,29.83-.23,47.3-1.62l.35-.05,4.76,45.86c.13,1.74.41,3.48.81,5.18l8.13,34.49c12.8,40.38,30.21,59.5,54.42,59.5,2.19,0,4.43-.16,6.73-.47l1.82-.25c4.59-.62,10.26-2.02,16.85-4.15l.42-.21c27.11-20.16,39.4-36.49,37.59-49.92-1.02-7.54-5.09-12.57-12.09-14.97Z"/>
    <path d="M856.45,278.14c-3.42-4.22-10.71-6.11-15.91-6.45l-.6-.03c-8.19-.38-12.89,4.5-14.39,14.91-.86,5.96-1.98,12.11-3.43,18.83-4.79,20.13-11.85,40.21-21.59,61.39l-.77,1.68-1.52-1.05c-11.5-7.91-20.7-14.8-28.99-21.71-15.87-13.68-30.37-29.24-44.4-44.29l-2.75-2.95c-2.42-2.6-5.97-4.23-9.73-4.47-3.92-.26-7.48.99-10.01,3.52-5.65,5.63-6.07,14.33-.95,19.81l2.74,2.94c10.78,11.56,21.92,23.51,33.57,34.53,10.91,10.32,22.98,20.25,35.87,29.53,3.57,2.57,7.44,5.27,12.19,8.5l2.73.9-.7,1.24c-3.41,6.1-5.21,12.14-8.98,18.36-13.3,21.94-19.82,30.91-39.26,56.86-6.06,8.09-11.63,14.94-17.08,20.98-8,8.4-14.88,15.83-23.75,21.47-5.88,3.74-12.71,7.73-18.06,9.49-1.19.39-2.48.82-3.98,1.33-1.55.46-3.25.98-5.04,1.52-7.92,2.43-15.3,2.34-22.65,3.2-2.15.15-4.12.38-6.02.61-3,.35-5.82.69-8.94.64-1.6-.02-3.14-.15-4.81-.39-3.83-.78-10.99-1.46-14.71-2.36-1.42-.34-2.83-.47-4.19-.36-6.02.47-10.69,5.33-11.91,12.37-1.57,9.08,3.62,17.2,12.33,19.31,10.33,2.5,16.57,2.58,27.57,2.75,2.64.04,5.31-.02,7.93-.18,8.4-.51,11.79-1.22,18.43-2.35,7.84-1.34,15.18-3.58,21.32-5.6,22.97-7.55,44.22-22.93,64.94-47,7.8-9.06,14.65-18.4,22.8-29.66,9.12-12.61,45.09-72.16,56.33-96.25,12.34-26.44,21.09-53.46,26.01-80.3.38-2.07.88-6.21,1.33-9.87.27-2.19.51-4.2.7-5.47.31-2.18-.25-4.18-1.67-5.93Z"/>
    <path d="M504.66,598.29c-.27,0-.51-.01-.81-.01-4.45,0-8.35,1.35-10.96,3.78-1.91,1.78-3.99,5.6-4.1,10.99-.37,17.8-2.54,29.78-6.45,48.61-.87,3.86-1.74,7.63-2.65,11.35-13.99-9.6-26.38-18.64-38.34-28.56l-1.86-1.55c-6.47-5.62-9.68-7.91-12.25-9.76-3.36-2.41-5.38-3.86-12.1-11.05-5.25-5.62-10.47-11.29-14.88-16.1-2.85-3.11-7.2-5.21-11.35-5.48-4.38-.28-9.41,1.47-12.22,4.24-6.74,6.66-7.29,17.04-1.24,23.64l.68.73c8.1,8.83,10.35,10.76,14.06,13.94,2.45,2.1,5.51,4.72,11.32,10.25,13,12.37,27.41,24.35,42.81,35.6,8.89,6.49,17.95,12.7,25.62,17.87-4.84,14.2-10.99,29.34-19.57,47.47-4.01,8.48-8.34,15.88-18.59,33.27-2.24,3.79-4.95,7.18-7.82,10.76-2.59,3.23-5.27,6.58-7.69,10.36-1.14,1.65-2.35,3.33-3.59,5-.95,1.27-1.91,2.53-2.89,3.79l-.35.46c-2.69,3.61-3.93,7.41-3.68,11.29.27,4.17,2.5,8.71,5.41,11.05,1.98,1.59,5.83,4.09,10.38,4.09.43,0,.87-.02,1.31-.07,2.8-.3,7.97-1.4,11.1-5.4,1.19-1.52,2.36-3.05,3.52-4.6,1.84-2.42,3.82-5.42,6.33-9.2,1.92-2.9,4.11-6.2,6.72-9.97,5.49-7.94,10.23-14.8,15.34-25.7.77-1.65,1.87-3.95,3.21-6.76,8.25-17.26,25.4-53.18,32.42-74.83,10.02-30.88,15.91-53.89,17.52-81.41.2-3.41.34-6.99.41-10.64.08-4.03-.86-9.95-3.78-13.39-2.18-2.55-5.76-3.88-10.97-4.06Z"/>
    <path d="M560.55,441c.36-5.24.9-10.63,1.63-16.48,3.16-22.14,8.51-42.42,15.89-60.28,2.35-5.4,5.63-12.43,10.11-18.8,2.6-3.11,5.61-6.05,9.18-8.98,4.85-3.57,9.94-6.56,15.1-8.89,1.01-.38,2.03-.73,3.03-1.04l1.34-.42.38,1.35c.81,2.84,1.43,5.75,2.04,8.59l.08.36c.59,2.76,1.1,5.57,1.58,8.59l.08.28c1.76,12.84,5.91,34.1,9.11,46.64,3.46,13.54,6.25,19.11,14.91,29.78,4.35,5.37,9.84,8.75,15.64,12.34l2.35,1.45c2.02,1.26,4.47,1.93,7.07,1.93,5.38,0,10.5-2.86,12.75-7.11,3.84-7.27,1.65-15.67-5.22-19.96-.6-.37-1.72-.74-3.02-1.16-1.52-.5-3.25-1.06-4.05-1.64-4.75-3.87-6.42-7.43-7.9-10.57-.39-.83-.75-1.6-1.16-2.37l-.07-.16c-3.98-10.42-8.23-25.98-9.68-35.42-.27-2.11-.52-4.22-.79-6.41-1.23-10.17-3.74-21.48-7.68-34.6-.21-.71-.41-1.4-.61-2.07-1.3-4.47-2.42-8.33-5.4-11.67-4.06-4.54-10.43-7.35-17.47-7.69-.38-.02-.75-.03-1.13-.03-3.91,0-8.36.94-13.62,2.88-4.7,1.73-9,3.67-12.78,5.74-7.81,4.29-14.85,9.64-20.92,15.91l-2.35,2.43v-3.38c0-5.21-.04-12.88-.15-17.43-.19-8.03-7.13-11.62-13.92-11.62-.05,0-4.79,0-4.98.01-6.77.3-10.38,5.45-10.16,14.5.37,15.59-.04,32.53-1.25,51.77-.09,1.49.18,3.72.44,5.88.27,2.18.54,4.44.44,5.89-.6,8.4-1.77,16.03-2.89,23.4-.95,6.21-1.93,12.63-2.58,19.53-1.08,11.37-1.85,20.62-2.44,29.12-.25,3.6,2.01,7.93,4.26,10.18,2.55,2.55,6.49,4.27,9.8,4.27.14,0,.28,0,.41,0,8.15-.36,14.02-6.24,14.6-14.63Z"/>
    <path d="M824.78,615.62c-1.18-4.49-2.52-9.58-5.1-13.04h0c-11.97-16.07-27.74-19.15-40.14-20.04-7.68-.55-19.21,2.53-23.23,4.87-1.16.68-2.62,1.27-4.18,1.9-2.93,1.19-6.26,2.53-8.83,4.93-3.65,3.04-7.2,6.8-10.55,11.18-5.08,6.64-8.82,11.95-11.09,15.8-2.93,4.95-5.46,10.06-7.53,15.19-2.05,5.08-3.46,9.97-4.73,14.55-10.21,36.96-4.3,59,.46,68.71,3.45,7.06,7.77,13.49,12.85,19.13,5.15,5.72,10.96,9.97,17.27,12.64,13.1,5.5,27.66,8.9,43.44,10.09,1.14,0,2.26-.03,3.35-.1,21.61-1.32,32.3-15.63,37.57-22.68.43-.57.83-1.11,1.2-1.59,2.65-3.45,2.66-8.15,0-13.96l-.11-.21c-2.92-4.7-5.93-7.29-9.18-7.93-2.38-.47-4.75.15-7.07,1.82-1.76,1.27-3.44,2.97-4.98,5.01-1.03,1.14-9.44,5.8-17.15,9.73-2.28-.05-4.48.11-6.62.26-2.89.2-5.63.4-8.27.06-4.81-.6-8.81-1.49-11.89-2.64-5.65-2.11-12.81-3.11-16.43-6.64-2.46-2.39-4.33-5.36-6.51-8.79-1.04-1.65-2.12-3.35-3.37-5.18-2.11-6.06-1.93-18.71-.06-32.43.44-3.21,2.82-12.01,4.56-16.69.47-1.25,22.99,6.36,37.46,6.67,14.38.32,19.99,1.3,31.48-5.31,1.83-1.05,6.74-3.95,10.27-8.57.79-1.04,1.55-2.03,2.21-2.87,3.06-3.87,5.4-9.24,6.95-15.97l.04-.21c.55-4.93.12-9.88-1.27-14.73-.26-.91-.53-1.91-.8-2.96ZM801.14,632.7c-.9,1.72-2.27,3.03-4.2,4.01-2.12,1.07-4.55,1.92-7.22,2.51-2.65.59-8.43.9-10.76.91-4-.05-13.09-2.53-17.59-4.2-3.38-1.26-6.05-2.47-7.94-3.61-1.14-.69-1.49-1.14-1.58-1.3.81-2.11,2.19-4.13,4.12-6,2.09-2.03,4.42-4.03,6.93-5.94,2.47-1.88,5.13-3.59,7.91-5.08l.5-.27c2.66-1.43,6.3-3.4,14.27-2.38,3.87.49,7.02,2.56,8.68,4.33l.26.23c3.86,2.8,4.93,5.51,6.33,9.06,1.23,3.11,1.32,5.66.3,7.74Z"/>
  </g>
</svg>