<svg width="108" height="108" version="1.1" xmlns="http://www.w3.org/2000/svg" desc="Created with imagetracer.js version 1.2.6" ><path fill="rgb(224,224,224)" stroke="rgb(224,224,224)" stroke-width="1" opacity="1" d="M 25.5 24 L 26 28.5 L 25 28.5 L 25.5 24 Z " /><path fill="rgb(224,224,224)" stroke="rgb(224,224,224)" stroke-width="1" opacity="1" d="M 46.5 24 L 47.5 26 L 46.5 24 Z " /><path fill="rgb(224,224,224)" stroke="rgb(224,224,224)" stroke-width="1" opacity="1" d="M 47.5 27 L 46.5 29 L 47.5 27 Z " /><path fill="rgb(224,224,224)" stroke="rgb(224,224,224)" stroke-width="1" opacity="1" d="M 57.5 32 L 60 32.5 L 57 33 L 56.5 40 L 56 33.5 L 57.5 32 Z " /><path fill="rgb(224,224,224)" stroke="rgb(224,224,224)" stroke-width="1" opacity="1" d="M 77.5 32 L 81.5 37 L 77.5 32 Z " /><path fill="rgb(224,224,224)" stroke="rgb(224,224,224)" stroke-width="1" opacity="1" d="M 48.5 33 L 49 35.5 L 48 35.5 L 48.5 33 Z " /><path fill="rgb(224,224,224)" stroke="rgb(224,224,224)" stroke-width="1" opacity="1" d="M 74.5 35 L 77.5 39 L 74.5 35 Z " /><path fill="rgb(224,224,224)" stroke="rgb(224,224,224)" stroke-width="1" opacity="1" d="M 63.5 37 L 62.5 39 L 63.5 37 Z " /><path fill="rgb(224,224,224)" stroke="rgb(224,224,224)" stroke-width="1" opacity="1" d="M 80.5 40 L 81.5 42 L 80.5 40 Z " /><path fill="rgb(224,224,224)" stroke="rgb(224,224,224)" stroke-width="1" opacity="1" d="M 67.5 46 L 68.5 48 L 67.5 46 Z " /><path fill="rgb(224,224,224)" stroke="rgb(224,224,224)" stroke-width="1" opacity="1" d="M 39.5 48 L 37.5 51 L 39.5 48 Z " /><path fill="rgb(224,224,224)" stroke="rgb(224,224,224)" stroke-width="1" opacity="1" d="M 82.5 52 L 81.5 54 L 82.5 52 Z " /><path fill="rgb(224,224,224)" stroke="rgb(224,224,224)" stroke-width="1" opacity="1" d="M 80.5 55 L 77.5 59 L 80.5 55 Z " /><path fill="rgb(224,224,224)" stroke="rgb(224,224,224)" stroke-width="1" opacity="1" d="M 67.5 61 L 71 61.5 L 67.5 62 L 67.5 61 Z " /><path fill="rgb(224,224,224)" stroke="rgb(224,224,224)" stroke-width="1" opacity="1" d="M 80.5 61 L 84 61.5 L 80.5 62 L 80.5 61 Z " /><path fill="rgb(224,224,224)" stroke="rgb(224,224,224)" stroke-width="1" opacity="1" d="M 78.5 62 L 77.5 64 L 78.5 62 Z " /><path fill="rgb(224,224,224)" stroke="rgb(224,224,224)" stroke-width="1" opacity="1" d="M 51.5 64 L 52 66.5 L 51 66.5 L 51.5 64 Z " /><path fill="rgb(224,224,224)" stroke="rgb(224,224,224)" stroke-width="1" opacity="1" d="M 63.5 65 L 66 65.5 L 63.5 66 L 63.5 65 Z " /><path fill="rgb(224,224,224)" stroke="rgb(224,224,224)" stroke-width="1" opacity="1" d="M 70.5 67 L 71.5 69 L 70.5 67 Z " /><path fill="rgb(224,224,224)" stroke="rgb(224,224,224)" stroke-width="1" opacity="1" d="M 87.5 68 L 85.5 71 L 87.5 68 Z " /><path fill="rgb(224,224,224)" stroke="rgb(224,224,224)" stroke-width="1" opacity="1" d="M 45.5 71 L 46.5 73 L 45.5 71 Z " /><path fill="rgb(224,224,224)" stroke="rgb(224,224,224)" stroke-width="1" opacity="1" d="M 38.5 76 L 37.5 78 L 38.5 76 Z " /><path fill="rgb(224,224,224)" stroke="rgb(224,224,224)" stroke-width="1" opacity="1" d="M 47.5 87 L 46.5 89 L 45 88.5 L 47.5 87 Z " /><path fill="rgb(255,255,255)" stroke="rgb(255,255,255)" stroke-width="1" opacity="1" d="M 0 0 L 108 0 L 108 108 L 0 108 L 0 0 Z M 26 22 L 25 25 L 26 30 L 26 33 L 15 33 L 14 36 L 16 37 L 26 37 L 27 45 L 29 49 Q 31 53 38 51 L 41 47 Q 43 42 39 43 L 37 46 L 34 47 Q 30 44 30 38 Q 31 35 36 36 L 36 32 L 29 32 L 29 23 L 26 22 Z M 43 24 L 43 28 L 47 29 L 48 26 Q 47 23 43 24 Z M 88 29 L 86 31 L 85 38 L 78 32 Q 72 30 74 36 L 83 43 L 77 53 L 72 57 L 64 57 L 64 61 L 68 62 L 78 59 L 88 44 L 91 31 L 88 29 Z M 58 32 L 56 34 L 56 50 L 59 50 Q 61 49 60 44 L 65 37 L 67 47 L 70 48 Q 71 51 73 47 L 70 44 L 68 35 Q 67 32 63 33 L 60 35 Q 61 31 58 32 Z M 44 33 L 46 51 Q 50 52 51 50 L 49 47 L 49 33 L 44 33 Z M 28 57 L 28 64 L 18 64 L 18 68 L 28 68 L 29 70 Q 28 76 31 80 Q 32 83 39 82 Q 43 81 42 75 L 40 75 L 36 78 L 33 74 Q 34 69 32 68 L 37 66 L 37 63 L 32 63 L 32 59 L 28 57 Z M 81 61 L 79 62 L 74 70 L 75 78 Q 77 82 85 81 Q 88 80 87 76 L 83 77 Q 79 78 78 75 Q 77 71 80 70 Q 81 72 86 71 Q 89 70 88 65 Q 87 60 81 61 Z M 54 62 Q 50 64 51 70 L 44 64 Q 39 62 40 67 L 49 75 L 44 85 L 44 88 L 47 89 L 53 79 L 56 66 L 54 62 Z M 64 65 L 58 68 Q 57 71 60 70 L 60 78 L 63 90 Q 64 92 68 91 L 65 79 L 69 78 Q 74 77 72 69 Q 69 65 64 65 Z " /><path fill="rgb(255,255,255)" stroke="rgb(255,255,255)" stroke-width="1" opacity="1" d="M 82.5 65 Q 85.1 64.3 84 67 L 81 66.5 L 82.5 65 Z " /><path fill="rgb(255,255,255)" stroke="rgb(255,255,255)" stroke-width="1" opacity="1" d="M 64.5 69 L 68 70 Q 68.8 73.8 65.5 75 L 64 74.5 L 64.5 69 Z " /><path fill="rgb(69,66,66)" stroke="rgb(69,66,66)" stroke-width="1" opacity="1" d="M 26.5 22 L 29 23.5 L 27.5 23 L 26.5 22 Z " /><path fill="rgb(69,66,66)" stroke="rgb(69,66,66)" stroke-width="1" opacity="1" d="M 44.5 24 L 46 24.5 L 44 25 L 43.5 27 L 43 25.5 L 44.5 24 Z " /><path fill="rgb(69,66,66)" stroke="rgb(69,66,66)" stroke-width="1" opacity="1" d="M 75.5 32 L 79 34.5 L 76.5 33 Q 74.3 32.3 75 34.5 L 74 34.5 L 75.5 32 Z " /><path fill="rgb(69,66,66)" stroke="rgb(69,66,66)" stroke-width="1" opacity="1" d="M 15.5 33 L 14.5 35 L 15.5 33 Z " /><path fill="rgb(69,66,66)" stroke="rgb(69,66,66)" stroke-width="1" opacity="1" d="M 18.5 33 L 21 33.5 L 18.5 34 L 18.5 33 Z " /><path fill="rgb(69,66,66)" stroke="rgb(69,66,66)" stroke-width="1" opacity="1" d="M 18.5 36 L 26 36.5 L 18.5 37 L 18.5 36 Z " /><path fill="rgb(69,66,66)" stroke="rgb(69,66,66)" stroke-width="1" opacity="1" d="M 29.5 36 L 30 38.5 L 29 38.5 L 29.5 36 Z " /><path fill="rgb(69,66,66)" stroke="rgb(69,66,66)" stroke-width="1" opacity="1" d="M 76.5 36 L 78.5 39 L 76.5 36 Z " /><path fill="rgb(69,66,66)" stroke="rgb(69,66,66)" stroke-width="1" opacity="1" d="M 45.5 37 L 46 41.5 L 45 41.5 L 45.5 37 Z " /><path fill="rgb(69,66,66)" stroke="rgb(69,66,66)" stroke-width="1" opacity="1" d="M 56.5 43 L 57 45.5 L 56 45.5 L 56.5 43 Z " /><path fill="rgb(69,66,66)" stroke="rgb(69,66,66)" stroke-width="1" opacity="1" d="M 69.5 43 L 71.5 46 L 69.5 43 Z " /><path fill="rgb(69,66,66)" stroke="rgb(69,66,66)" stroke-width="1" opacity="1" d="M 37.5 45 L 35.5 48 L 33 47.5 L 37.5 45 Z " /><path fill="rgb(69,66,66)" stroke="rgb(69,66,66)" stroke-width="1" opacity="1" d="M 64.5 58 L 66 60.5 L 64 59.5 L 64.5 58 Z " /><path fill="rgb(69,66,66)" stroke="rgb(69,66,66)" stroke-width="1" opacity="1" d="M 79.5 62 L 77.5 65 L 79.5 62 Z " /><path fill="rgb(69,66,66)" stroke="rgb(69,66,66)" stroke-width="1" opacity="1" d="M 20.5 64 L 28 64.5 L 20.5 65 L 20.5 64 Z " /><path fill="rgb(69,66,66)" stroke="rgb(69,66,66)" stroke-width="1" opacity="1" d="M 82.5 64 L 85 65.5 L 83.5 65 L 82.5 64 Z " /><path fill="rgb(69,66,66)" stroke="rgb(69,66,66)" stroke-width="1" opacity="1" d="M 46.5 67 L 47.5 69 L 46.5 67 Z " /><path fill="rgb(69,66,66)" stroke="rgb(69,66,66)" stroke-width="1" opacity="1" d="M 69.5 67 L 70.5 69 L 69.5 67 Z " /><path fill="rgb(69,66,66)" stroke="rgb(69,66,66)" stroke-width="1" opacity="1" d="M 58.5 68 Q 61.5 68.5 61 72.5 L 60 72.5 L 58.5 68 Z " /><path fill="rgb(69,66,66)" stroke="rgb(69,66,66)" stroke-width="1" opacity="1" d="M 67.5 69 L 68.5 71 L 67.5 69 Z " /><path fill="rgb(69,66,66)" stroke="rgb(69,66,66)" stroke-width="1" opacity="1" d="M 71.5 70 L 72 73.5 L 71 73.5 L 71.5 70 Z " /><path fill="rgb(69,66,66)" stroke="rgb(69,66,66)" stroke-width="1" opacity="1" d="M 46.5 71 L 47.5 73 L 46.5 71 Z " /><path fill="rgb(69,66,66)" stroke="rgb(69,66,66)" stroke-width="1" opacity="1" d="M 34.5 81 L 37 81.5 L 34.5 82 L 34.5 81 Z " /><path fill="rgb(13,7,7)" stroke="rgb(13,7,7)" stroke-width="1" opacity="1" d="M 79.5 35 L 80.5 37 L 79.5 35 Z " /><path fill="rgb(13,7,7)" stroke="rgb(13,7,7)" stroke-width="1" opacity="1" d="M 62.5 37 L 61.5 39 L 62.5 37 Z " /><path fill="rgb(13,7,7)" stroke="rgb(13,7,7)" stroke-width="1" opacity="1" d="M 67.5 45 L 68.5 47 L 67.5 45 Z " /><path fill="rgb(13,7,7)" stroke="rgb(13,7,7)" stroke-width="1" opacity="1" d="M 78.5 56 L 77.5 58 L 78.5 56 Z " /><path fill="rgb(13,7,7)" stroke="rgb(13,7,7)" stroke-width="1" opacity="1" d="M 86.5 68 L 85.5 70 L 86.5 68 Z " /><path fill="rgb(0,0,0)" stroke="rgb(0,0,0)" stroke-width="1" opacity="1" d="M 87 30 Q 91.9 28.2 90 34.5 Q 86 50 75.5 59 Q 72.6 61.6 66.5 61 L 65 58 Q 75.7 59 79 51.5 L 84 42.5 L 75 34.5 Q 74.3 32.3 76.5 33 L 84.5 39 Q 87.9 36 87 30 Z " /><path fill="rgb(153,152,152)" stroke="rgb(153,152,152)" stroke-width="1" opacity="1" d="M 43.5 27 L 46 28.5 L 44.5 29 L 43.5 27 Z " /><path fill="rgb(153,152,152)" stroke="rgb(153,152,152)" stroke-width="1" opacity="1" d="M 89.5 29 L 91 31.5 L 90 31.5 L 89.5 29 Z " /><path fill="rgb(153,152,152)" stroke="rgb(153,152,152)" stroke-width="1" opacity="1" d="M 21.5 33 L 26 33.5 L 21.5 34 L 21.5 33 Z " /><path fill="rgb(153,152,152)" stroke="rgb(153,152,152)" stroke-width="1" opacity="1" d="M 66.5 33 L 67.5 35 L 66.5 33 Z " /><path fill="rgb(153,152,152)" stroke="rgb(153,152,152)" stroke-width="1" opacity="1" d="M 14.5 35 L 18 36.5 L 15.5 37 L 14.5 35 Z " /><path fill="rgb(153,152,152)" stroke="rgb(153,152,152)" stroke-width="1" opacity="1" d="M 48.5 36 L 49 42.5 L 48 42.5 L 48.5 36 Z " /><path fill="rgb(153,152,152)" stroke="rgb(153,152,152)" stroke-width="1" opacity="1" d="M 56.5 40 L 57 42.5 L 56 42.5 L 56.5 40 Z " /><path fill="rgb(153,152,152)" stroke="rgb(153,152,152)" stroke-width="1" opacity="1" d="M 45.5 42 L 46 44.5 L 45 44.5 L 45.5 42 Z " /><path fill="rgb(153,152,152)" stroke="rgb(153,152,152)" stroke-width="1" opacity="1" d="M 30.5 49 L 31.5 51 L 30.5 49 Z " /><path fill="rgb(153,152,152)" stroke="rgb(153,152,152)" stroke-width="1" opacity="1" d="M 76.5 53 L 74.5 56 L 76.5 53 Z " /><path fill="rgb(153,152,152)" stroke="rgb(153,152,152)" stroke-width="1" opacity="1" d="M 29.5 57 L 32 58.5 L 33 63.5 L 31 62.5 Q 32.9 57.1 29.5 58 L 29.5 57 Z " /><path fill="rgb(153,152,152)" stroke="rgb(153,152,152)" stroke-width="1" opacity="1" d="M 28.5 59 L 29 63.5 L 28 63.5 L 28.5 59 Z " /><path fill="rgb(153,152,152)" stroke="rgb(153,152,152)" stroke-width="1" opacity="1" d="M 43.5 64 L 45.5 67 L 43.5 64 Z " /><path fill="rgb(153,152,152)" stroke="rgb(153,152,152)" stroke-width="1" opacity="1" d="M 87.5 65 L 88 67.5 L 87 67.5 L 87.5 65 Z " /><path fill="rgb(153,152,152)" stroke="rgb(153,152,152)" stroke-width="1" opacity="1" d="M 19.5 67 L 28 67.5 L 19.5 68 L 19.5 67 Z " /><path fill="rgb(153,152,152)" stroke="rgb(153,152,152)" stroke-width="1" opacity="1" d="M 42.5 68 L 44.5 71 L 42.5 68 Z " /><path fill="rgb(153,152,152)" stroke="rgb(153,152,152)" stroke-width="1" opacity="1" d="M 49.5 69 L 50.5 71 L 49.5 69 Z " /><path fill="rgb(153,152,152)" stroke="rgb(153,152,152)" stroke-width="1" opacity="1" d="M 81.5 70 L 85 70.5 L 81.5 71 L 81.5 70 Z " /><path fill="rgb(153,152,152)" stroke="rgb(153,152,152)" stroke-width="1" opacity="1" d="M 74.5 71 L 75 74.5 L 74 74.5 L 74.5 71 Z " /><path fill="rgb(153,152,152)" stroke="rgb(153,152,152)" stroke-width="1" opacity="1" d="M 60.5 73 L 61 75.5 L 60 75.5 L 60.5 73 Z " /><path fill="rgb(153,152,152)" stroke="rgb(153,152,152)" stroke-width="1" opacity="1" d="M 78.5 75 L 79.5 77 L 78.5 75 Z " /><path fill="rgb(153,152,152)" stroke="rgb(153,152,152)" stroke-width="1" opacity="1" d="M 41.5 78 L 39.5 81 L 41.5 78 Z " /><path fill="rgb(153,152,152)" stroke="rgb(153,152,152)" stroke-width="1" opacity="1" d="M 65.5 78 L 64.5 80 L 65.5 78 Z " /><path fill="rgb(153,152,152)" stroke="rgb(153,152,152)" stroke-width="1" opacity="1" d="M 86.5 78 L 85.5 80 L 86.5 78 Z " /><path fill="rgb(153,152,152)" stroke="rgb(153,152,152)" stroke-width="1" opacity="1" d="M 81.5 80 L 84 80.5 L 81.5 81 L 81.5 80 Z " /><path fill="rgb(13,6,6)" stroke="rgb(13,6,6)" stroke-width="1" opacity="1" d="M 26 23 Q 28.7 21.9 28 24.5 L 29 25.5 L 29 33 L 34.5 32 L 35 35 L 29 36 L 30 43.5 L 33.5 48 Q 37.5 48.5 38 45.5 Q 37.3 42.9 40 44 Q 40.8 48.7 36.5 50 L 33.5 51 L 30 48.5 Q 26.6 43.7 27 36 L 15.5 36 L 15 34.5 L 17.5 33 L 18.5 34 L 26 34 L 26 23 Z " /><path fill="rgb(13,6,6)" stroke="rgb(13,6,6)" stroke-width="1" opacity="1" d="M 44 25 L 47 26.5 Q 47.7 29.5 44 28 L 44 25 Z " /><path fill="rgb(13,6,6)" stroke="rgb(13,6,6)" stroke-width="1" opacity="1" d="M 45 33 L 48 34.5 Q 46.6 44.4 50 49.5 Q 48.5 52.5 47 49.5 L 45 33 Z " /><path fill="rgb(13,6,6)" stroke="rgb(13,6,6)" stroke-width="1" opacity="1" d="M 58.5 33 L 60.5 36 Q 61.9 33.4 66.5 34 L 68 35.5 L 69 43.5 L 72 46.5 L 70.5 48 L 67 44.5 L 66 37.5 L 64.5 36 L 61 38.5 L 59 48.5 L 57.5 50 L 56 47.5 L 57 46.5 L 57 34.5 L 58.5 33 Z " /><path fill="rgb(13,6,6)" stroke="rgb(13,6,6)" stroke-width="1" opacity="1" d="M 29 58 L 31 58 L 31 64 L 36 64 L 36 66 L 32 66 L 32 73.5 L 35.5 79 L 39 77.5 L 40.5 75 Q 43.3 76.3 41 77.5 L 38.5 81 Q 33.3 82.3 32 79.5 L 30 75.5 L 29 67 L 18.5 67 L 18 65 L 29 65 L 29 58 Z " /><path fill="rgb(13,6,6)" stroke="rgb(13,6,6)" stroke-width="1" opacity="1" d="M 81.5 62 L 87 64.5 Q 87.8 69.3 84.5 70 L 78 69 L 77 74.5 L 78 77 L 83.5 78 L 86 77 L 84.5 80 Q 76.6 80.9 75 75.5 Q 73.8 65.8 79.5 63 L 81.5 62 Z M 83 64 L 80 65 L 82 68 Q 86 70 85 66 L 83 64 Z " /><path fill="rgb(13,6,6)" stroke="rgb(13,6,6)" stroke-width="1" opacity="1" d="M 53.5 63 Q 55.8 63.8 55 67.5 L 51 80.5 L 45.5 88 Q 42.3 86.3 46 84.5 L 49 79.5 L 50 73 L 41 66.5 Q 39.9 63.2 42.5 64 Q 45.5 70 52 71 L 52 64.5 L 53.5 63 Z " /><path fill="rgb(13,6,6)" stroke="rgb(13,6,6)" stroke-width="1" opacity="1" d="M 62.5 66 Q 69.4 65.1 71 69.5 Q 72.3 75.8 68.5 77 L 64 78 L 67 89.5 Q 65.5 92.5 64 89.5 L 61 78.5 L 61 70.5 L 59 67 L 62.5 66 Z M 63 69 L 64 76 L 68 75 Q 70 74 69 71 Q 68 68 63 69 Z " /></svg>